<svg width="157" height="38" viewBox="0 0 157 38" fill="none" xmlns="http://www.w3.org/2000/svg">
<g clip-path="url(#clip0)">
<path d="M101.002 38.0036C111.491 38.0036 119.994 29.5005 119.994 19.0113C119.994 8.52224 111.491 0.0191345 101.002 0.0191345C90.5127 0.0191345 82.0096 8.52224 82.0096 19.0113C82.0096 29.5005 90.5127 38.0036 101.002 38.0036Z" fill="#2A3332"/>
<path d="M87.5498 5.55756C94.9599 -1.85252 106.978 -1.85252 114.388 5.55756C121.798 12.9676 121.798 24.9857 114.388 32.3957" fill="#121C1B"/>
<path d="M101 27.1651C105.505 27.1651 109.157 23.5129 109.157 19.0078C109.157 14.5026 105.505 10.8505 101 10.8505C96.4948 10.8505 92.8427 14.5026 92.8427 19.0078C92.8427 23.5129 96.4948 27.1651 101 27.1651Z" fill="#F74D19"/>
<path d="M92.8427 19.0078C92.8427 14.5244 96.5166 10.8505 101 10.8505C105.483 10.8505 109.157 14.5244 109.157 19.0078" fill="#FF7A17"/>
<path d="M102.494 17.8246L99.6301 20.689L105.048 26.1065C105.67 25.7329 106.231 25.297 106.791 24.7988C107.227 24.3629 107.663 23.8025 107.974 23.3044L102.494 17.8246Z" fill="#E0360E"/>
<path d="M101 21.3117C102.272 21.3117 103.304 20.2802 103.304 19.0078C103.304 17.7353 102.272 16.7038 101 16.7038C99.7275 16.7038 98.696 17.7353 98.696 19.0078C98.696 20.2802 99.7275 21.3117 101 21.3117Z" fill="#D3DEE2"/>
<path d="M101 21.3117C99.7546 21.3117 98.696 20.2532 98.696 19.0078C98.696 17.7624 99.6923 16.7038 101 16.7038" fill="#EBF0F2"/>
<path d="M101 34.8865C92.22 34.8865 85.1213 27.7878 85.1213 19.0078C85.1213 18.6964 85.3703 18.3851 85.744 18.3851C86.0553 18.3851 86.3667 18.6341 86.3667 19.0078C86.3044 27.1028 92.905 33.7034 101 33.7034C101.311 33.7034 101.623 33.9525 101.623 34.3261C101.623 34.6374 101.311 34.8865 101 34.8865Z" fill="#726C6A"/>
<path d="M116.318 19.6305C116.007 19.6305 115.696 19.3814 115.696 19.0078C115.696 10.9127 109.095 4.31216 101 4.31216C100.689 4.31216 100.377 4.06309 100.377 3.68947C100.377 3.37812 100.626 3.06677 101 3.06677C109.78 3.06677 116.879 10.2278 116.879 18.9455C116.879 19.3191 116.63 19.6305 116.318 19.6305Z" fill="#726C6A"/>
<path d="M101 31.2126C94.2749 31.2126 88.7952 25.7329 88.7952 19.0078C88.7952 18.6964 89.0442 18.3851 89.4179 18.3851C89.7292 18.3851 90.0406 18.6341 90.0406 19.0078C90.0406 25.0479 94.9599 30.0295 101.062 30.0295C101.374 30.0295 101.685 30.2786 101.685 30.6522C101.623 30.9635 101.311 31.2126 101 31.2126Z" fill="#726C6A"/>
<path d="M112.582 19.6305C112.271 19.6305 111.959 19.3814 111.959 19.0078C111.959 12.9676 107.04 7.98608 100.938 7.98608C100.626 7.98608 100.315 7.73701 100.315 7.36339C100.315 7.05204 100.564 6.74069 100.938 6.74069C107.663 6.74069 113.143 12.2204 113.143 18.9455C113.205 19.3191 112.956 19.6305 112.582 19.6305Z" fill="#726C6A"/>
</g>
<path d="M0 10.35H6.31489V12.5308C8.03608 10.8923 9.96658 10.0731 12.1064 10.0731C14.758 10.0731 16.7815 11.1808 18.1771 13.3962C19.5959 11.1577 21.6195 10.0385 24.2478 10.0385C25.0851 10.0385 25.8759 10.1596 26.6202 10.4019C27.3645 10.6442 28.0041 11.025 28.5391 11.5442C29.0741 12.0635 29.4986 12.7385 29.8126 13.5692C30.1266 14.4 30.2836 15.4038 30.2836 16.5808V28.1077H23.9687V19.35C23.9687 18.45 23.9047 17.7115 23.7768 17.1346C23.6489 16.5577 23.4628 16.1077 23.2186 15.7846C22.9743 15.4615 22.6894 15.2423 22.3638 15.1269C22.0381 15.0115 21.6893 14.9538 21.3171 14.9538C19.2935 14.9538 18.2818 16.4192 18.2818 19.35V28.1077H11.9669V19.35C11.9669 18.45 11.9087 17.7058 11.7924 17.1173C11.6761 16.5288 11.5075 16.0615 11.2866 15.7154C11.0656 15.3692 10.7807 15.1327 10.4318 15.0058C10.0829 14.8788 9.67585 14.8154 9.21067 14.8154C8.81526 14.8154 8.44311 14.8731 8.09422 14.9885C7.74533 15.1038 7.43715 15.3288 7.16967 15.6635C6.90218 15.9981 6.69285 16.4596 6.54167 17.0481C6.39048 17.6365 6.31489 18.4038 6.31489 19.35V28.1077H0V10.35ZM40.6921 10.35V28.1077H34.3772V10.35H40.6921ZM33.9585 3.53077C33.9585 3.04615 34.0516 2.59039 34.2376 2.16346C34.4237 1.73654 34.6796 1.36154 35.0052 1.03846C35.3308 0.715383 35.7088 0.461539 36.1391 0.276923C36.5694 0.0923068 37.0287 0 37.5172 0C38.0056 0 38.465 0.0923068 38.8953 0.276923C39.3256 0.461539 39.7036 0.715383 40.0292 1.03846C40.3548 1.36154 40.6107 1.73654 40.7967 2.16346C40.9828 2.59039 41.0759 3.04615 41.0759 3.53077C41.0759 4.01539 40.9828 4.47115 40.7967 4.89808C40.6107 5.325 40.3548 5.7 40.0292 6.02308C39.7036 6.34616 39.3256 6.6 38.8953 6.78462C38.465 6.96923 38.0056 7.06154 37.5172 7.06154C37.0287 7.06154 36.5694 6.96923 36.1391 6.78462C35.7088 6.6 35.3308 6.34616 35.0052 6.02308C34.6796 5.7 34.4237 5.325 34.2376 4.89808C34.0516 4.47115 33.9585 4.01539 33.9585 3.53077ZM51.5541 18.4846L44.2973 10.35H52.531L55.6013 14.0192L58.7413 10.35H66.975L59.5437 18.4846L75.4879 35.7231L55.5664 22.8462L50.961 28.1077H42.6226L51.5541 18.4846Z" fill="#76ADFF"/>
<path d="M79.6513 22.8808H87.1873V28.1077H69.0451L77.4882 15.5769H70.1964V10.35H88.0247L79.6513 22.8808ZM96.7236 19.1423C96.7236 19.7423 96.8341 20.2904 97.0551 20.7865C97.276 21.2827 97.5668 21.7154 97.9273 22.0846C98.2878 22.4538 98.7181 22.7423 99.2182 22.95C99.7183 23.1577 100.247 23.2615 100.806 23.2615C101.364 23.2615 101.893 23.1577 102.393 22.95C102.893 22.7423 103.323 22.4538 103.684 22.0846C104.044 21.7154 104.335 21.2827 104.556 20.7865C104.777 20.2904 104.888 19.7538 104.888 19.1769C104.888 18.6231 104.777 18.0981 104.556 17.6019C104.335 17.1058 104.044 16.6731 103.684 16.3038C103.323 15.9346 102.893 15.6462 102.393 15.4385C101.893 15.2308 101.364 15.1269 100.806 15.1269C100.247 15.1269 99.7183 15.2308 99.2182 15.4385C98.7181 15.6462 98.2878 15.9346 97.9273 16.3038C97.5668 16.6731 97.276 17.1 97.0551 17.5846C96.8341 18.0692 96.7236 18.5885 96.7236 19.1423ZM90.0598 19.0731C90.0598 17.7577 90.3273 16.5289 90.8623 15.3865C91.3973 14.2442 92.1415 13.2519 93.0952 12.4096C94.0488 11.5673 95.1827 10.9038 96.4968 10.4192C97.811 9.93461 99.2472 9.69231 100.806 9.69231C102.341 9.69231 103.765 9.92884 105.08 10.4019C106.394 10.875 107.533 11.5327 108.499 12.375C109.464 13.2173 110.214 14.2211 110.749 15.3865C111.284 16.5519 111.551 17.8385 111.551 19.2462C111.551 20.6539 111.278 21.9404 110.732 23.1058C110.185 24.2712 109.435 25.275 108.481 26.1173C107.528 26.9596 106.382 27.6115 105.045 28.0731C103.707 28.5346 102.259 28.7654 100.701 28.7654C99.1658 28.7654 97.747 28.5346 96.4445 28.0731C95.142 27.6115 94.0197 26.9538 93.0777 26.1C92.1357 25.2461 91.3973 24.225 90.8623 23.0365C90.3273 21.8481 90.0598 20.5269 90.0598 19.0731ZM114.947 10.35H121.262V12.6C122.123 11.5615 122.995 10.8635 123.879 10.5058C124.763 10.1481 125.798 9.96923 126.984 9.96923C128.24 9.96923 129.316 10.1712 130.211 10.575C131.107 10.9788 131.868 11.55 132.496 12.2885C133.008 12.8885 133.357 13.5577 133.543 14.2962C133.729 15.0346 133.822 15.8769 133.822 16.8231V28.1077H127.507V19.1423C127.507 18.2654 127.443 17.5558 127.315 17.0135C127.187 16.4712 126.961 16.0385 126.635 15.7154C126.356 15.4385 126.042 15.2423 125.693 15.1269C125.344 15.0115 124.972 14.9538 124.577 14.9538C123.507 14.9538 122.687 15.2711 122.117 15.9058C121.547 16.5404 121.262 17.4461 121.262 18.6231V28.1077H114.947V10.35ZM150.964 16.65C150.755 15.7731 150.325 15.0692 149.673 14.5385C149.022 14.0077 148.231 13.7423 147.301 13.7423C146.324 13.7423 145.527 13.9962 144.911 14.5038C144.295 15.0115 143.905 15.7269 143.742 16.65H150.964ZM143.568 20.2846C143.568 22.9846 144.847 24.3346 147.406 24.3346C148.778 24.3346 149.813 23.7808 150.511 22.6731H156.616C155.383 26.7346 152.302 28.7654 147.371 28.7654C145.859 28.7654 144.475 28.5404 143.219 28.0904C141.963 27.6404 140.887 27 139.992 26.1692C139.096 25.3385 138.404 24.3462 137.916 23.1923C137.427 22.0385 137.183 20.7462 137.183 19.3154C137.183 17.8385 137.416 16.5058 137.881 15.3173C138.346 14.1288 139.009 13.1192 139.87 12.2885C140.73 11.4577 141.771 10.8173 142.992 10.3673C144.213 9.9173 145.591 9.69231 147.126 9.69231C148.638 9.69231 149.999 9.9173 151.208 10.3673C152.418 10.8173 153.441 11.4692 154.279 12.3231C155.116 13.1769 155.756 14.2211 156.198 15.4558C156.639 16.6904 156.86 18.0808 156.86 19.6269V20.2846H143.568Z" fill="#B8B9BB"/>
<defs>
<clipPath id="clip0">
<rect x="82" width="38" height="38" fill="white"/>
</clipPath>
</defs>
</svg>
