<svg width="17" height="14" viewBox="0 0 17 14" fill="none" xmlns="http://www.w3.org/2000/svg">
<path fill-rule="evenodd" clip-rule="evenodd" d="M9.08816 0.0578524C8.90066 -0.0353482 8.67649 -0.0148087 8.5093 0.111299L3.60567 3.81194H0.886731C0.397759 3.81194 0 4.20992 0 4.69911V8.71712C0 9.20609 0.397759 9.60407 0.886731 9.60407H3.60567L8.5093 13.3045C8.60692 13.3783 8.72419 13.416 8.84213 13.416C8.92605 13.416 9.0102 13.3968 9.08816 13.3579C9.27567 13.2645 9.39405 13.0732 9.39405 12.8639V0.552125C9.39405 0.342755 9.27567 0.151274 9.08816 0.0578524ZM8.28978 11.7554L4.12314 8.61133C4.02729 8.53889 3.91068 8.4998 3.79054 8.4998H1.10428V4.91622H3.79054C3.91046 4.91622 4.02729 4.87712 4.12314 4.8049L8.28978 1.6606V11.7554ZM11.1728 3.83666C10.957 3.6211 10.6076 3.6211 10.3921 3.83666C10.1765 4.05221 10.1763 4.40182 10.3921 4.6176C10.9504 5.17592 11.258 5.91821 11.258 6.70776C11.258 7.49754 10.9504 8.23983 10.3921 8.79815C10.1763 9.01371 10.1763 9.36332 10.3921 9.57887C10.4998 9.68665 10.6412 9.74054 10.7825 9.74054C10.9239 9.74054 11.065 9.68665 11.173 9.57887C11.9402 8.81207 12.3625 7.79238 12.3625 6.70776C12.3623 5.62315 11.94 4.60368 11.1728 3.83666ZM12.6954 2.31432C12.4798 2.09854 12.13 2.09854 11.9147 2.31432C11.6989 2.52987 11.6989 2.87948 11.9147 3.09504C12.8798 4.06017 13.4112 5.34333 13.4112 6.70799C13.4112 8.07265 12.8798 9.35582 11.9147 10.3207C11.6989 10.5363 11.6989 10.8859 11.9147 11.1015C12.0224 11.2092 12.1638 11.2631 12.3051 11.2631C12.4465 11.2631 12.5876 11.2092 12.6956 11.1015C13.869 9.92805 14.5154 8.36794 14.5154 6.70799C14.5154 5.04805 13.869 3.48794 12.6954 2.31432ZM14.257 0.752427C14.0415 0.536652 13.6916 0.536652 13.4763 0.752427C13.2605 0.967981 13.2605 1.31759 13.4763 1.53315C16.3295 4.38637 16.3295 9.02939 13.4763 11.8828C13.2605 12.0986 13.2605 12.4482 13.4763 12.6636C13.5841 12.7713 13.7254 12.8252 13.8668 12.8252C14.0081 12.8252 14.1495 12.7713 14.2575 12.6636C17.5409 9.37967 17.5409 4.03609 14.257 0.752427Z" fill="white"/>
</svg>
