<?xml version="1.0" encoding="UTF-8"?>
<svg width="157px" height="36px" viewBox="0 0 157 36" version="1.1" xmlns="http://www.w3.org/2000/svg" xmlns:xlink="http://www.w3.org/1999/xlink">
    <!-- Generator: Sketch 54.1 (76490) - https://sketchapp.com -->
    <title>logo</title>
    <desc>Created with Sketch.</desc>
    <g id="Page-1" stroke="none" stroke-width="1" fill="none" fill-rule="evenodd">
        <g id="logo" fill-rule="nonzero">
            <path d="M4.26325641e-14,10.35 L6.31488889,10.35 L6.31488889,12.5307692 C8.03608268,10.8922995 9.96658189,10.0730769 12.1064444,10.0730769 C14.7580133,10.0730769 16.7815486,11.1807582 18.1771111,13.3961538 C19.595933,11.1576811 21.6194683,10.0384615 24.2477778,10.0384615 C25.0851153,10.0384615 25.8759222,10.1596142 26.6202222,10.4019231 C27.3645222,10.644232 28.0041455,11.0249974 28.5391111,11.5442308 C29.0740767,12.0634641 29.498554,12.7384574 29.8125556,13.5692308 C30.1265571,14.4000042 30.2835556,15.4038403 30.2835556,16.5807692 L30.2835556,28.1076923 L23.9686667,28.1076923 L23.9686667,19.35 C23.9686667,18.4499955 23.9047043,17.7115413 23.7767778,17.1346154 C23.6488512,16.5576894 23.462779,16.1076939 23.2185556,15.7846154 C22.9743321,15.4615368 22.689409,15.2423083 22.3637778,15.1269231 C22.0381465,15.0115379 21.6892611,14.9538462 21.3171111,14.9538462 C19.2935454,14.9538462 18.2817778,16.4192161 18.2817778,19.35 L18.2817778,28.1076923 L11.9668889,28.1076923 L11.9668889,19.35 C11.9668889,18.4499955 11.9087413,17.7057722 11.7924444,17.1173077 C11.6761476,16.5288432 11.5075196,16.0615402 11.2865556,15.7153846 C11.0655915,15.369229 10.7806684,15.1326929 10.4317778,15.0057692 C10.0828871,14.8788455 9.67585418,14.8153846 9.21066667,14.8153846 C8.81525728,14.8153846 8.44311286,14.8730763 8.09422222,14.9884615 C7.74533159,15.1038467 7.43714949,15.3288445 7.16966667,15.6634615 C6.90218385,15.9980786 6.69285261,16.4596124 6.54166667,17.0480769 C6.39048073,17.6365414 6.31488889,18.4038414 6.31488889,19.35 L6.31488889,28.1076923 L4.26325641e-14,28.1076923 L4.26325641e-14,10.35 Z M40.692074,10.35 L40.692074,28.1076923 L34.3771851,28.1076923 L34.3771851,10.35 L40.692074,10.35 Z M33.9585184,3.53076923 C33.9585184,3.04615142 34.0515546,2.59038675 34.2376296,2.16346154 C34.4237046,1.73653633 34.6795539,1.36154008 35.0051851,1.03846154 C35.3308164,0.715383 35.7087756,0.461539385 36.139074,0.276923077 C36.5693725,0.0923067692 37.0287382,-3.55271368e-14 37.5171851,-3.55271368e-14 C38.005632,-3.55271368e-14 38.4649978,0.0923067692 38.8952962,0.276923077 C39.3255947,0.461539385 39.7035539,0.715383 40.0291851,1.03846154 C40.3548164,1.36154008 40.6106657,1.73653633 40.7967407,2.16346154 C40.9828157,2.59038675 41.0758518,3.04615142 41.0758518,3.53076923 C41.0758518,4.01538704 40.9828157,4.47115171 40.7967407,4.89807692 C40.6106657,5.32500213 40.3548164,5.69999838 40.0291851,6.02307692 C39.7035539,6.34615546 39.3255947,6.59999908 38.8952962,6.78461538 C38.4649978,6.96923169 38.005632,7.06153846 37.5171851,7.06153846 C37.0287382,7.06153846 36.5693725,6.96923169 36.139074,6.78461538 C35.7087756,6.59999908 35.3308164,6.34615546 35.0051851,6.02307692 C34.6795539,5.69999838 34.4237046,5.32500213 34.2376296,4.89807692 C34.0515546,4.47115171 33.9585184,4.01538704 33.9585184,3.53076923 Z M51.554148,18.4846154 L44.2972591,10.35 L52.5310369,10.35 L55.6012591,14.0192308 L58.7412591,10.35 L66.9750369,10.35 L59.5437036,18.4846154 L75.4879258,35.7230769 L55.5663702,22.8461538 L50.9610369,28.1076923 L42.6225925,28.1076923 L51.554148,18.4846154 Z" id="mix" fill="#222222"></path>
            <path d="M79.6513331,22.8807692 L87.1873331,22.8807692 L87.1873331,28.1076923 L69.0451109,28.1076923 L77.488222,15.5769231 L70.1964442,15.5769231 L70.1964442,10.35 L88.0246665,10.35 L79.6513331,22.8807692 Z M96.7236294,19.1423077 C96.7236294,19.7423107 96.8341097,20.2903821 97.0550738,20.7865385 C97.2760379,21.2826948 97.5667757,21.7153828 97.927296,22.0846154 C98.2878163,22.453848 98.7181083,22.7423067 99.2181849,22.95 C99.7182615,23.1576933 100.247404,23.2615385 100.805629,23.2615385 C101.363854,23.2615385 101.892997,23.1576933 102.393074,22.95 C102.89315,22.7423067 103.323442,22.453848 103.683963,22.0846154 C104.044483,21.7153828 104.335221,21.2826948 104.556185,20.7865385 C104.777149,20.2903821 104.887629,19.753849 104.887629,19.1769231 C104.887629,18.6230742 104.777149,18.0980794 104.556185,17.6019231 C104.335221,17.1057668 104.044483,16.6730788 103.683963,16.3038462 C103.323442,15.9346135 102.89315,15.6461549 102.393074,15.4384615 C101.892997,15.2307682 101.363854,15.1269231 100.805629,15.1269231 C100.247404,15.1269231 99.7182615,15.2307682 99.2181849,15.4384615 C98.7181083,15.6461549 98.2878163,15.9346135 97.927296,16.3038462 C97.5667757,16.6730788 97.2760379,17.0999976 97.0550738,17.5846154 C96.8341097,18.0692332 96.7236294,18.5884615 96.7236294,19.1423077 Z M90.0598516,19.0730769 C90.0598516,17.7576857 90.3273304,16.5288519 90.862296,15.3865385 C91.3972617,14.2442251 92.1415505,13.2519273 93.0951849,12.4096154 C94.0488193,11.5673035 95.1826969,10.9038486 96.4968516,10.4192308 C97.8110063,9.93461296 99.2472512,9.69230769 100.805629,9.69230769 C102.340748,9.69230769 103.765364,9.92884379 105.079518,10.4019231 C106.393673,10.8750024 107.533365,11.5326881 108.498629,12.375 C109.463893,13.2173119 110.213997,14.221148 110.748963,15.3865385 C111.283928,16.5519289 111.551407,17.8384545 111.551407,19.2461538 C111.551407,20.6538532 111.278114,21.9403788 110.731518,23.1057692 C110.184923,24.2711597 109.434819,25.2749958 108.481185,26.1173077 C107.527551,26.9596196 106.382043,27.6115362 105.044629,28.0730769 C103.707215,28.5346177 102.259341,28.7653846 100.700963,28.7653846 C99.1658439,28.7653846 97.7470433,28.5346177 96.4445182,28.0730769 C95.1419932,27.6115362 94.0197452,26.9538504 93.0777405,26.1 C92.1357358,25.2461496 91.3972617,24.2250059 90.862296,23.0365385 C90.3273304,21.848071 90.0598516,20.5269303 90.0598516,19.0730769 Z M114.947259,10.35 L121.262148,10.35 L121.262148,12.6 C122.122745,11.5615333 122.994958,10.8634633 123.878814,10.5057692 C124.762671,10.1480751 125.797697,9.96923077 126.983926,9.96923077 C128.239932,9.96923077 129.315662,10.1711518 130.211148,10.575 C131.106634,10.9788482 131.868367,11.5499963 132.49637,12.2884615 C133.008076,12.8884645 133.356962,13.5576886 133.543037,14.2961538 C133.729112,15.0346191 133.822148,15.8769183 133.822148,16.8230769 L133.822148,28.1076923 L127.507259,28.1076923 L127.507259,19.1423077 C127.507259,18.2653802 127.443297,17.5557719 127.31537,17.0134615 C127.187443,16.4711511 126.960668,16.0384632 126.635037,15.7153846 C126.355924,15.4384602 126.041927,15.2423083 125.693037,15.1269231 C125.344146,15.0115379 124.972002,14.9538462 124.576592,14.9538462 C123.506661,14.9538462 122.68678,15.2711507 122.116926,15.9057692 C121.547071,16.5403878 121.262148,17.446148 121.262148,18.6230769 L121.262148,28.1076923 L114.947259,28.1076923 L114.947259,10.35 Z M150.964222,16.65 C150.754887,15.7730725 150.324595,15.0692334 149.673333,14.5384615 C149.02207,14.0076897 148.231263,13.7423077 147.300888,13.7423077 C146.323995,13.7423077 145.527373,13.9961513 144.911,14.5038462 C144.294626,15.011541 143.905037,15.7269185 143.742222,16.65 L150.964222,16.65 Z M143.567777,20.2846154 C143.567777,22.9846289 144.847024,24.3346154 147.405555,24.3346154 C148.777858,24.3346154 149.812885,23.7807748 150.510666,22.6730769 L156.616222,22.6730769 C155.383475,26.7346357 152.301654,28.7653846 147.370666,28.7653846 C145.858807,28.7653846 144.474895,28.5403869 143.218888,28.0903846 C141.962882,27.6403824 140.887152,27.0000042 139.991666,26.1692308 C139.09618,25.3384574 138.404224,24.3461596 137.915777,23.1923077 C137.42733,22.0384558 137.183111,20.746161 137.183111,19.3153846 C137.183111,17.8384542 137.415701,16.5057752 137.880888,15.3173077 C138.346076,14.1288402 139.008958,13.1192349 139.869555,12.2884615 C140.730152,11.4576882 141.770993,10.8173099 142.992111,10.3673077 C144.213228,9.91730544 145.591325,9.69230769 147.126444,9.69230769 C148.638303,9.69230769 149.998956,9.91730544 151.208444,10.3673077 C152.417932,10.8173099 153.441329,11.4692265 154.278666,12.3230769 C155.116004,13.1769273 155.755627,14.2211477 156.197555,15.4557692 C156.639483,16.6903908 156.860444,18.0807615 156.860444,19.6269231 L156.860444,20.2846154 L143.567777,20.2846154 Z" id="zone" fill="#2DA1B0"></path>
        </g>
    </g>
</svg>